<svg xmlns="http://www.w3.org/2000/svg" xmlns:xlink="http://www.w3.org/1999/xlink" id="Layer_1" x="0" y="0" version="1.1" viewBox="36.47 38.39 437.75 439.6" style="enable-background:new 36.47 38.39 437.75 439.6" xml:space="preserve"><style type="text/css">.st0{fill:url(#SVGID_3_)}.st1{fill:url(#SVGID_1_);stroke:url(#SVGID_2_);stroke-width:15;stroke-miterlimit:10}</style><linearGradient id="SVGID_1_" x1="171.033" x2="595.059" y1="316.728" y2="316.728" gradientTransform="matrix(0.6278 0.7783 0.7783 -0.6278 -231.6411 158.9119)" gradientUnits="userSpaceOnUse"><stop offset="0" style="stop-color:#fff"/><stop offset=".537" style="stop-color:#eee"/><stop offset="1" style="stop-color:#e5e5e5"/></linearGradient><linearGradient id="SVGID_2_" x1="163.533" x2="602.559" y1="316.728" y2="316.728" gradientTransform="matrix(0.6278 0.7783 0.7783 -0.6278 -231.6411 158.9119)" gradientUnits="userSpaceOnUse"><stop offset="0" style="stop-color:#ff5e4e"/><stop offset=".15" style="stop-color:#ff5c6d"/><stop offset=".169" style="stop-color:#ff5e73"/><stop offset=".248" style="stop-color:#ff6385"/><stop offset=".303" style="stop-color:#ff658c"/><stop offset=".368" style="stop-color:#e4729f"/><stop offset=".433" style="stop-color:#d17cad"/><stop offset=".477" style="stop-color:#ca7fb2"/><stop offset=".553" style="stop-color:#9d6cff"/><stop offset=".593" style="stop-color:#9870ff;stop-opacity:.9882"/><stop offset=".643" style="stop-color:#897afe;stop-opacity:.9725"/><stop offset=".698" style="stop-color:#708cfe;stop-opacity:.9529"/><stop offset=".756" style="stop-color:#4da4fd;stop-opacity:.9333"/><stop offset=".802" style="stop-color:#2cbcfc;stop-opacity:.9176"/><stop offset="1" style="stop-color:#00c7ff"/></linearGradient><path d="M131.94,430.51C37.17,362.03,15.6,229.37,83.75,134.21c68.15-95.17,200.23-116.8,295-48.33	c94.77,68.47,116.34,201.13,48.19,296.3C358.79,477.34,226.71,498.98,131.94,430.51L131.94,430.51z" class="st1"/><linearGradient id="SVGID_3_" x1="128.561" x2="383.949" y1="347.729" y2="16.253" gradientTransform="matrix(1 0 0 -1 -0.02 438.6943)" gradientUnits="userSpaceOnUse"><stop offset="0" style="stop-color:#ff5e4e"/><stop offset=".249" style="stop-color:#ff5c6d"/><stop offset=".377" style="stop-color:#ff658c"/><stop offset=".497" style="stop-color:#ca7fb2"/><stop offset=".627" style="stop-color:#9d6cff"/><stop offset=".763" style="stop-color:#2cbcfc;stop-opacity:.9176"/><stop offset="1" style="stop-color:#00c7ff"/></linearGradient><path d="M330.63,359.35c13.38-3.92,22.83-13.44,26.7-26.89l1.14-3.95l0.15-106.01c0.11-79.39,0-106.51-0.44-107.99	c-0.46-1.57-1.2-2.88-2.16-3.92c-1.42-0.87-3.12-1.33-5.05-1.33c-1.33,0-5.95,0.64-10.26,1.42	c-19.07,3.47-131.47,25.86-133.39,26.57c-2.97,1.1-5.91,3.71-7.31,6.48l-1.18,2.35c0,0-0.56,166.17-1.42,168.04	c-1.31,2.85-4.22,5.54-6.9,6.4c-1.27,0.41-6.29,1.54-11.16,2.5c-22.55,4.49-30.93,7.72-38.01,14.68c-4.02,3.95-7,9.34-8.29,15	c-1.23,5.41-0.82,13.5,0.93,18.42c1.84,5.15,4.8,9.54,8.67,13c3.52,2.71,7.67,4.73,12.34,5.93c10.32,2.64,29.65-0.3,39.53-6.01	c4.13-2.39,9.45-7.4,12.21-11.53c1.1-1.63,2.74-4.92,3.66-7.3c3.22-8.36,3.32-157.22,3.73-159.1c0.7-3.18,2.87-5.51,5.87-6.3	c2.7-0.71,110.93-22.11,113.98-22.53c2.68-0.37,5.21,0.49,6.59,2.19c0.82,0.44,1.51,1.03,2,1.76c0.88,1.31,0.93,3.9,1.06,51.03	c0.15,54.25,0.22,52.97-2.73,56.4c-2.15,2.49-4.82,3.45-15.82,5.7c-16.74,3.42-22.46,5.04-28.88,8.17	c-8,3.91-12.45,8.19-15.88,15.31c-2.43,5.03-3.34,8.81-3.33,13.81c0.01,8.96,3.11,15.96,10.08,22.81c0.64,0.63,1.27,1.22,1.91,1.77	c3.51,2.71,7.09,4.35,11.59,5.39C307.35,363.16,321.17,362.13,330.63,359.35z" class="st0"/></svg>